<svg width="100" height="100" viewBox="0 0 100 100" fill="none" xmlns="http://www.w3.org/2000/svg"><g clip-path="url(#a)"><path d="M99.704 45.932 81.931 9.459a2.93 2.93 0 0 0-2.634-1.646H20.703a2.93 2.93 0 0 0-2.633 1.646L.296 45.932a2.93 2.93 0 0 0 2.29 4.192c2.495.295 4.934.34 7.375.148v38.986a2.93 2.93 0 0 0 2.93 2.93h74.218a2.93 2.93 0 0 0 2.93-2.93V50.274a38 38 0 0 0 7.376-.15 2.93 2.93 0 0 0 2.29-4.193M59.71 13.672l8.461 24.02c-8.414 9.164-28.018 9.063-36.34 0l8.46-24.02zM7.502 44.52l15.032-30.85H34.08l-8.173 23.2c-4.167 5.28-11.651 7.553-18.405 7.652m27.85 41.807H15.82V77.54h19.532zm23.437 0H41.211V62.891h17.578zm25.39 0H64.65V77.54h19.53zm0-14.648H64.65V59.96a2.93 2.93 0 0 0-2.93-2.93H38.28a2.93 2.93 0 0 0-2.93 2.93v11.72H15.82V49.34c4.643-1.138 9.204-3.307 12.696-6.654 10.741 10.288 32.242 10.272 42.967 0 3.461 3.317 8.003 5.504 12.696 6.654zM74.094 36.868 65.92 13.672h11.545L92.499 44.52c-6.73-.1-14.223-2.352-18.406-7.653" fill="#020202"/></g><defs><clipPath id="a"><path fill="#fff" d="M0 0h100v100H0z"/></clipPath></defs></svg>